<mxfile host="app.diagrams.net" modified="2021-12-12T13:40:30.242Z" agent="5.0 (Macintosh; Intel Mac OS X 10_15_7) AppleWebKit/537.36 (KHTML, like Gecko) Chrome/96.0.4664.93 Safari/537.36" etag="qTd2v5pIcq3AvRQA-6SD" version="15.8.3" type="github">
  <diagram id="Z9--X8Tv3oQYfTn5Jpwc" name="Page-1">
    <mxGraphModel dx="1426" dy="878" grid="1" gridSize="10" guides="1" tooltips="1" connect="1" arrows="1" fold="1" page="1" pageScale="1" pageWidth="827" pageHeight="1169" math="0" shadow="0">
      <root>
        <mxCell id="0" />
        <mxCell id="1" parent="0" />
        <mxCell id="89wiXbeNwQITbWPwXBna-1" value="" style="rounded=0;whiteSpace=wrap;html=1;" vertex="1" parent="1">
          <mxGeometry x="120" y="560" width="220" height="110" as="geometry" />
        </mxCell>
        <mxCell id="89wiXbeNwQITbWPwXBna-3" value="src ip" style="rounded=0;whiteSpace=wrap;html=1;" vertex="1" parent="1">
          <mxGeometry x="140" y="615" width="70" height="30" as="geometry" />
        </mxCell>
        <mxCell id="89wiXbeNwQITbWPwXBna-4" value="dest ip" style="rounded=0;whiteSpace=wrap;html=1;" vertex="1" parent="1">
          <mxGeometry x="220" y="615" width="70" height="30" as="geometry" />
        </mxCell>
        <mxCell id="89wiXbeNwQITbWPwXBna-5" value="src port" style="rounded=0;whiteSpace=wrap;html=1;" vertex="1" parent="1">
          <mxGeometry x="140" y="580" width="70" height="30" as="geometry" />
        </mxCell>
        <mxCell id="89wiXbeNwQITbWPwXBna-6" value="dst port" style="rounded=0;whiteSpace=wrap;html=1;" vertex="1" parent="1">
          <mxGeometry x="220" y="580" width="70" height="30" as="geometry" />
        </mxCell>
        <mxCell id="89wiXbeNwQITbWPwXBna-7" value="" style="rounded=0;whiteSpace=wrap;html=1;" vertex="1" parent="1">
          <mxGeometry x="120" y="340" width="220" height="120" as="geometry" />
        </mxCell>
        <mxCell id="89wiXbeNwQITbWPwXBna-8" value="IP Module" style="text;html=1;strokeColor=none;fillColor=none;align=center;verticalAlign=middle;whiteSpace=wrap;rounded=0;" vertex="1" parent="1">
          <mxGeometry x="120" y="340" width="60" height="30" as="geometry" />
        </mxCell>
        <mxCell id="89wiXbeNwQITbWPwXBna-9" value="" style="rounded=0;whiteSpace=wrap;html=1;" vertex="1" parent="1">
          <mxGeometry x="120" y="190" width="220" height="120" as="geometry" />
        </mxCell>
        <mxCell id="89wiXbeNwQITbWPwXBna-10" value="TCP Module" style="text;html=1;strokeColor=none;fillColor=none;align=center;verticalAlign=middle;whiteSpace=wrap;rounded=0;" vertex="1" parent="1">
          <mxGeometry x="120" y="190" width="80" height="30" as="geometry" />
        </mxCell>
        <mxCell id="89wiXbeNwQITbWPwXBna-12" value="" style="shape=flexArrow;endArrow=classic;html=1;rounded=0;" edge="1" parent="1">
          <mxGeometry width="50" height="50" relative="1" as="geometry">
            <mxPoint x="229.5" y="530" as="sourcePoint" />
            <mxPoint x="229.5" y="470" as="targetPoint" />
          </mxGeometry>
        </mxCell>
        <mxCell id="89wiXbeNwQITbWPwXBna-14" value="interface A" style="rounded=0;whiteSpace=wrap;html=1;" vertex="1" parent="1">
          <mxGeometry x="340" y="870" width="120" height="60" as="geometry" />
        </mxCell>
        <mxCell id="89wiXbeNwQITbWPwXBna-15" value="interface B" style="rounded=0;whiteSpace=wrap;html=1;" vertex="1" parent="1">
          <mxGeometry x="340" y="1070" width="120" height="60" as="geometry" />
        </mxCell>
        <mxCell id="89wiXbeNwQITbWPwXBna-16" value="" style="endArrow=classic;html=1;rounded=0;entryX=0;entryY=0.5;entryDx=0;entryDy=0;" edge="1" parent="1" target="89wiXbeNwQITbWPwXBna-15">
          <mxGeometry width="50" height="50" relative="1" as="geometry">
            <mxPoint x="150" y="1100" as="sourcePoint" />
            <mxPoint x="240" y="1130" as="targetPoint" />
          </mxGeometry>
        </mxCell>
        <mxCell id="89wiXbeNwQITbWPwXBna-17" value="http proxy" style="text;html=1;strokeColor=none;fillColor=none;align=center;verticalAlign=middle;whiteSpace=wrap;rounded=0;" vertex="1" parent="1">
          <mxGeometry x="200" y="1110" width="60" height="30" as="geometry" />
        </mxCell>
        <mxCell id="89wiXbeNwQITbWPwXBna-19" value="router" style="rounded=0;whiteSpace=wrap;html=1;" vertex="1" parent="1">
          <mxGeometry x="560" y="970" width="120" height="60" as="geometry" />
        </mxCell>
        <mxCell id="89wiXbeNwQITbWPwXBna-20" value="" style="endArrow=classic;html=1;rounded=0;exitX=0.5;exitY=0;exitDx=0;exitDy=0;entryX=0;entryY=0.5;entryDx=0;entryDy=0;" edge="1" parent="1" source="89wiXbeNwQITbWPwXBna-15" target="89wiXbeNwQITbWPwXBna-19">
          <mxGeometry width="50" height="50" relative="1" as="geometry">
            <mxPoint x="430" y="1040" as="sourcePoint" />
            <mxPoint x="480" y="990" as="targetPoint" />
          </mxGeometry>
        </mxCell>
        <mxCell id="89wiXbeNwQITbWPwXBna-21" value="" style="endArrow=classic;html=1;rounded=0;exitX=0;exitY=0.5;exitDx=0;exitDy=0;entryX=0.5;entryY=1;entryDx=0;entryDy=0;" edge="1" parent="1" source="89wiXbeNwQITbWPwXBna-19" target="89wiXbeNwQITbWPwXBna-14">
          <mxGeometry width="50" height="50" relative="1" as="geometry">
            <mxPoint x="410" y="1080" as="sourcePoint" />
            <mxPoint x="570" y="1010" as="targetPoint" />
          </mxGeometry>
        </mxCell>
        <mxCell id="89wiXbeNwQITbWPwXBna-22" value="" style="endArrow=classic;html=1;rounded=0;exitX=0.5;exitY=0;exitDx=0;exitDy=0;entryX=0.5;entryY=1;entryDx=0;entryDy=0;" edge="1" parent="1" source="89wiXbeNwQITbWPwXBna-14" target="89wiXbeNwQITbWPwXBna-23">
          <mxGeometry width="50" height="50" relative="1" as="geometry">
            <mxPoint x="430" y="820" as="sourcePoint" />
            <mxPoint x="400" y="780" as="targetPoint" />
          </mxGeometry>
        </mxCell>
        <mxCell id="89wiXbeNwQITbWPwXBna-23" value="internet" style="rounded=0;whiteSpace=wrap;html=1;" vertex="1" parent="1">
          <mxGeometry x="340" y="740" width="120" height="60" as="geometry" />
        </mxCell>
      </root>
    </mxGraphModel>
  </diagram>
</mxfile>
